<svg xmlns="http://www.w3.org/2000/svg" width="1314" height="175" viewBox="0 0 1314 175">
  <defs>
    <style>
      .cls-1 {
        fill: #fff;
        fill-rule: evenodd;
      }
    </style>
  </defs>
  <path id="TALENT" class="cls-1" d="M54.913,148H94.889V62.24h35.193V28.414H19.721V62.24H54.913V148Zm176.3,0h42.709l6.15-16.059h41.855L328.248,148h43.393l-50.4-120.44H281.61Zm58.938-44.418L301.085,74.54l10.934,29.042H290.151ZM492.757,148h96.181V113.833H532.732V28.414H492.757V148Zm221.058,0H816.659V115.2H753.107V102.216h58.427V73.344H753.107V61.215h62.7v-32.8H713.815V148Zm229.769,0h39.635V92.82L1027.64,148h35.53V28.414h-39.63V81.2L981,28.414H943.584V148Zm280,0h39.98V62.24h35.19V28.414H1188.39V62.24h35.19V148Z"/>
</svg>
